<mxfile host="app.diagrams.net" agent="Mozilla/5.0 (Windows NT 10.0; Win64; x64) AppleWebKit/537.36 (KHTML, like Gecko) Chrome/138.0.0.0 Safari/537.36 Edg/138.0.0.0" version="28.0.4">
  <diagram name="Page-1" id="PSFj-yylVWiQcvtHPAzP">
    <mxGraphModel dx="1034" dy="544" grid="1" gridSize="10" guides="1" tooltips="1" connect="1" arrows="1" fold="1" page="1" pageScale="1" pageWidth="850" pageHeight="1100" math="0" shadow="0">
      <root>
        <mxCell id="0" />
        <mxCell id="1" parent="0" />
        <mxCell id="sNUk35SLCKJkpxCr8cnD-1" value="" style="shadow=0;dashed=0;html=1;strokeColor=none;fillColor=#4495D1;labelPosition=center;verticalLabelPosition=bottom;verticalAlign=top;align=center;outlineConnect=0;shape=mxgraph.veeam.shared_folder;" parent="1" vertex="1">
          <mxGeometry x="425" y="15.5" width="100" height="100" as="geometry" />
        </mxCell>
        <mxCell id="sNUk35SLCKJkpxCr8cnD-2" value="" style="image;aspect=fixed;html=1;points=[];align=center;fontSize=12;image=img/lib/azure2/general/Folder_Blank.svg;" parent="1" vertex="1">
          <mxGeometry x="525" y="219.5" width="69" height="56.00000000000001" as="geometry" />
        </mxCell>
        <mxCell id="sNUk35SLCKJkpxCr8cnD-3" value="" style="image;aspect=fixed;html=1;points=[];align=center;fontSize=12;image=img/lib/azure2/general/Folder_Blank.svg;" parent="1" vertex="1">
          <mxGeometry x="535" y="449.5" width="69" height="56.00000000000001" as="geometry" />
        </mxCell>
        <mxCell id="sNUk35SLCKJkpxCr8cnD-4" value="" style="sketch=0;aspect=fixed;pointerEvents=1;shadow=0;dashed=0;html=1;strokeColor=none;labelPosition=center;verticalLabelPosition=bottom;verticalAlign=top;align=center;fillColor=#00188D;shape=mxgraph.mscae.enterprise.document" parent="1" vertex="1">
          <mxGeometry x="615" y="289.5" width="40" height="50" as="geometry" />
        </mxCell>
        <mxCell id="sNUk35SLCKJkpxCr8cnD-5" value="" style="sketch=0;aspect=fixed;pointerEvents=1;shadow=0;dashed=0;html=1;strokeColor=none;labelPosition=center;verticalLabelPosition=bottom;verticalAlign=top;align=center;fillColor=#00188D;shape=mxgraph.mscae.enterprise.document" parent="1" vertex="1">
          <mxGeometry x="615" y="359.5" width="40" height="50" as="geometry" />
        </mxCell>
        <mxCell id="sNUk35SLCKJkpxCr8cnD-6" value="" style="sketch=0;aspect=fixed;pointerEvents=1;shadow=0;dashed=0;html=1;strokeColor=none;labelPosition=center;verticalLabelPosition=bottom;verticalAlign=top;align=center;fillColor=#00188D;shape=mxgraph.mscae.enterprise.document" parent="1" vertex="1">
          <mxGeometry x="625" y="529.5" width="40" height="50" as="geometry" />
        </mxCell>
        <mxCell id="sNUk35SLCKJkpxCr8cnD-7" value="" style="image;sketch=0;aspect=fixed;html=1;points=[];align=center;fontSize=12;image=img/lib/mscae/Person.svg;" parent="1" vertex="1">
          <mxGeometry x="70" y="80" width="37" height="50" as="geometry" />
        </mxCell>
        <mxCell id="sNUk35SLCKJkpxCr8cnD-8" value="" style="image;sketch=0;aspect=fixed;html=1;points=[];align=center;fontSize=12;image=img/lib/mscae/Person.svg;" parent="1" vertex="1">
          <mxGeometry x="70" y="276" width="37" height="50" as="geometry" />
        </mxCell>
        <mxCell id="sNUk35SLCKJkpxCr8cnD-9" value="" style="image;sketch=0;aspect=fixed;html=1;points=[];align=center;fontSize=12;image=img/lib/mscae/Person.svg;" parent="1" vertex="1">
          <mxGeometry x="70" y="463" width="37" height="50" as="geometry" />
        </mxCell>
        <mxCell id="sNUk35SLCKJkpxCr8cnD-10" value="" style="aspect=fixed;sketch=0;html=1;dashed=0;whitespace=wrap;verticalLabelPosition=bottom;verticalAlign=top;fillColor=#2875E2;strokeColor=#ffffff;points=[[0.005,0.63,0],[0.1,0.2,0],[0.9,0.2,0],[0.5,0,0],[0.995,0.63,0],[0.72,0.99,0],[0.5,1,0],[0.28,0.99,0]];shape=mxgraph.kubernetes.icon2;kubernetesLabel=1;prIcon=group" parent="1" vertex="1">
          <mxGeometry x="260" y="116" width="108.33" height="104" as="geometry" />
        </mxCell>
        <mxCell id="sNUk35SLCKJkpxCr8cnD-11" value="" style="aspect=fixed;sketch=0;html=1;dashed=0;whitespace=wrap;verticalLabelPosition=bottom;verticalAlign=top;fillColor=#2875E2;strokeColor=#ffffff;points=[[0.005,0.63,0],[0.1,0.2,0],[0.9,0.2,0],[0.5,0,0],[0.995,0.63,0],[0.72,0.99,0],[0.5,1,0],[0.28,0.99,0]];shape=mxgraph.kubernetes.icon2;kubernetesLabel=1;prIcon=group" parent="1" vertex="1">
          <mxGeometry x="270" y="370" width="108.33" height="104" as="geometry" />
        </mxCell>
        <mxCell id="sNUk35SLCKJkpxCr8cnD-12" value="&lt;font&gt;Data&lt;/font&gt;" style="text;strokeColor=none;fillColor=none;html=1;align=center;verticalAlign=middle;whiteSpace=wrap;rounded=0;fontSize=26;" parent="1" vertex="1">
          <mxGeometry x="545" y="49.5" width="60" height="30" as="geometry" />
        </mxCell>
        <mxCell id="sNUk35SLCKJkpxCr8cnD-15" value="&lt;font&gt;Engineering_Files&lt;/font&gt;" style="text;strokeColor=none;fillColor=none;html=1;align=center;verticalAlign=middle;whiteSpace=wrap;rounded=0;fontSize=26;" parent="1" vertex="1">
          <mxGeometry x="690" y="232.5" width="60" height="30" as="geometry" />
        </mxCell>
        <mxCell id="sNUk35SLCKJkpxCr8cnD-16" value="&lt;font style=&quot;font-size: 26px;&quot;&gt;Manufacturing_Files&lt;/font&gt;" style="text;strokeColor=none;fillColor=none;html=1;align=center;verticalAlign=middle;whiteSpace=wrap;rounded=0;fontSize=16;" parent="1" vertex="1">
          <mxGeometry x="700" y="462.5" width="60" height="30" as="geometry" />
        </mxCell>
        <mxCell id="sNUk35SLCKJkpxCr8cnD-17" value="&lt;font&gt;Doc1.txt&lt;/font&gt;" style="text;strokeColor=none;fillColor=none;html=1;align=center;verticalAlign=middle;whiteSpace=wrap;rounded=0;fontSize=21;fontStyle=0" parent="1" vertex="1">
          <mxGeometry x="665" y="315.5" width="60" height="30" as="geometry" />
        </mxCell>
        <mxCell id="sNUk35SLCKJkpxCr8cnD-18" value="&lt;font&gt;Doc3&lt;/font&gt;&lt;span style=&quot;background-color: transparent; color: light-dark(rgb(0, 0, 0), rgb(255, 255, 255));&quot;&gt;.txt&lt;/span&gt;" style="text;strokeColor=none;fillColor=none;html=1;align=center;verticalAlign=middle;whiteSpace=wrap;rounded=0;fontSize=21;fontStyle=0" parent="1" vertex="1">
          <mxGeometry x="665" y="386.5" width="60" height="30" as="geometry" />
        </mxCell>
        <mxCell id="sNUk35SLCKJkpxCr8cnD-20" value="&lt;font&gt;Doc2.txt&lt;/font&gt;" style="text;strokeColor=none;fillColor=none;html=1;align=center;verticalAlign=middle;whiteSpace=wrap;rounded=0;fontSize=21;fontStyle=0" parent="1" vertex="1">
          <mxGeometry x="675" y="556.5" width="60" height="30" as="geometry" />
        </mxCell>
        <mxCell id="sNUk35SLCKJkpxCr8cnD-21" value="&lt;b&gt;&lt;font style=&quot;font-size: 22px;&quot;&gt;Manufacturing Group&lt;/font&gt;&lt;/b&gt;" style="text;strokeColor=none;fillColor=none;html=1;align=center;verticalAlign=middle;whiteSpace=wrap;rounded=0;fontSize=16;" parent="1" vertex="1">
          <mxGeometry x="294.16" y="230" width="60" height="30" as="geometry" />
        </mxCell>
        <mxCell id="sNUk35SLCKJkpxCr8cnD-23" value="&lt;b&gt;&lt;font style=&quot;font-size: 22px;&quot;&gt;Engineering&lt;br&gt;Group&lt;/font&gt;&lt;/b&gt;" style="text;strokeColor=none;fillColor=none;html=1;align=center;verticalAlign=middle;whiteSpace=wrap;rounded=0;fontSize=16;" parent="1" vertex="1">
          <mxGeometry x="300" y="480" width="60" height="30" as="geometry" />
        </mxCell>
        <mxCell id="sNUk35SLCKJkpxCr8cnD-24" value="&lt;font&gt;Sue&lt;/font&gt;" style="text;strokeColor=none;fillColor=none;html=1;align=center;verticalAlign=middle;whiteSpace=wrap;rounded=0;fontSize=21;fontStyle=0" parent="1" vertex="1">
          <mxGeometry x="58.5" y="130" width="60" height="30" as="geometry" />
        </mxCell>
        <mxCell id="sNUk35SLCKJkpxCr8cnD-25" value="Chris" style="text;strokeColor=none;fillColor=none;html=1;align=center;verticalAlign=middle;whiteSpace=wrap;rounded=0;fontSize=21;fontStyle=0" parent="1" vertex="1">
          <mxGeometry x="58.5" y="330" width="60" height="30" as="geometry" />
        </mxCell>
        <mxCell id="sNUk35SLCKJkpxCr8cnD-26" value="&lt;font&gt;Dave&lt;/font&gt;" style="text;strokeColor=none;fillColor=none;html=1;align=center;verticalAlign=middle;whiteSpace=wrap;rounded=0;fontSize=21;fontStyle=0" parent="1" vertex="1">
          <mxGeometry x="58.5" y="511" width="60" height="30" as="geometry" />
        </mxCell>
        <mxCell id="sNUk35SLCKJkpxCr8cnD-27" value="" style="endArrow=none;html=1;rounded=0;fontSize=12;startSize=8;endSize=8;curved=1;" parent="1" source="sNUk35SLCKJkpxCr8cnD-1" edge="1">
          <mxGeometry width="50" height="50" relative="1" as="geometry">
            <mxPoint x="473" y="229.5" as="sourcePoint" />
            <mxPoint x="475" y="469.5" as="targetPoint" />
          </mxGeometry>
        </mxCell>
        <mxCell id="sNUk35SLCKJkpxCr8cnD-28" value="" style="endArrow=none;html=1;rounded=0;fontSize=12;startSize=8;endSize=8;curved=1;" parent="1" edge="1">
          <mxGeometry width="50" height="50" relative="1" as="geometry">
            <mxPoint x="475" y="239.5" as="sourcePoint" />
            <mxPoint x="525" y="239.5" as="targetPoint" />
          </mxGeometry>
        </mxCell>
        <mxCell id="sNUk35SLCKJkpxCr8cnD-29" value="" style="endArrow=none;html=1;rounded=0;fontSize=12;startSize=8;endSize=8;curved=1;" parent="1" edge="1">
          <mxGeometry width="50" height="50" relative="1" as="geometry">
            <mxPoint x="475" y="469.5" as="sourcePoint" />
            <mxPoint x="535" y="469.5" as="targetPoint" />
          </mxGeometry>
        </mxCell>
        <mxCell id="sNUk35SLCKJkpxCr8cnD-30" value="" style="endArrow=none;html=1;rounded=0;fontSize=12;startSize=8;endSize=8;curved=1;" parent="1" edge="1">
          <mxGeometry width="50" height="50" relative="1" as="geometry">
            <mxPoint x="555" y="389.5" as="sourcePoint" />
            <mxPoint x="555" y="279.5" as="targetPoint" />
          </mxGeometry>
        </mxCell>
        <mxCell id="sNUk35SLCKJkpxCr8cnD-31" value="" style="endArrow=none;html=1;rounded=0;fontSize=12;startSize=8;endSize=8;curved=1;entryX=0.042;entryY=0.589;entryDx=0;entryDy=0;entryPerimeter=0;" parent="1" target="sNUk35SLCKJkpxCr8cnD-4" edge="1">
          <mxGeometry width="50" height="50" relative="1" as="geometry">
            <mxPoint x="555" y="319.5" as="sourcePoint" />
            <mxPoint x="585" y="329.5" as="targetPoint" />
          </mxGeometry>
        </mxCell>
        <mxCell id="sNUk35SLCKJkpxCr8cnD-32" value="" style="endArrow=none;html=1;rounded=0;fontSize=12;startSize=8;endSize=8;curved=1;entryX=0;entryY=0.6;entryDx=0;entryDy=0;entryPerimeter=0;" parent="1" target="sNUk35SLCKJkpxCr8cnD-5" edge="1">
          <mxGeometry width="50" height="50" relative="1" as="geometry">
            <mxPoint x="555" y="389.5" as="sourcePoint" />
            <mxPoint x="565" y="379.5" as="targetPoint" />
          </mxGeometry>
        </mxCell>
        <mxCell id="sNUk35SLCKJkpxCr8cnD-33" value="" style="endArrow=none;html=1;rounded=0;fontSize=12;startSize=8;endSize=8;curved=1;entryX=-0.027;entryY=0.597;entryDx=0;entryDy=0;entryPerimeter=0;" parent="1" target="sNUk35SLCKJkpxCr8cnD-6" edge="1">
          <mxGeometry width="50" height="50" relative="1" as="geometry">
            <mxPoint x="565" y="559.5" as="sourcePoint" />
            <mxPoint x="637" y="589.5" as="targetPoint" />
          </mxGeometry>
        </mxCell>
        <mxCell id="sNUk35SLCKJkpxCr8cnD-34" value="" style="endArrow=none;html=1;rounded=0;fontSize=12;startSize=8;endSize=8;curved=1;exitX=0.462;exitY=0.965;exitDx=0;exitDy=0;exitPerimeter=0;" parent="1" edge="1">
          <mxGeometry width="50" height="50" relative="1" as="geometry">
            <mxPoint x="564.998" y="505.49999999999994" as="sourcePoint" />
            <mxPoint x="565" y="559.5" as="targetPoint" />
          </mxGeometry>
        </mxCell>
        <mxCell id="sNUk35SLCKJkpxCr8cnD-35" value="" style="endArrow=none;html=1;rounded=0;fontSize=12;startSize=8;endSize=8;curved=1;exitX=0.981;exitY=0.762;exitDx=0;exitDy=0;exitPerimeter=0;" parent="1" source="sNUk35SLCKJkpxCr8cnD-7" edge="1">
          <mxGeometry width="50" height="50" relative="1" as="geometry">
            <mxPoint x="210" y="320" as="sourcePoint" />
            <mxPoint x="270" y="180" as="targetPoint" />
          </mxGeometry>
        </mxCell>
        <mxCell id="sNUk35SLCKJkpxCr8cnD-36" value="" style="endArrow=none;html=1;rounded=0;fontSize=12;startSize=8;endSize=8;curved=1;exitX=1.006;exitY=0.594;exitDx=0;exitDy=0;exitPerimeter=0;entryX=0.092;entryY=0.615;entryDx=0;entryDy=0;entryPerimeter=0;" parent="1" source="sNUk35SLCKJkpxCr8cnD-8" target="sNUk35SLCKJkpxCr8cnD-10" edge="1">
          <mxGeometry width="50" height="50" relative="1" as="geometry">
            <mxPoint x="120" y="290" as="sourcePoint" />
            <mxPoint x="274" y="334" as="targetPoint" />
          </mxGeometry>
        </mxCell>
        <mxCell id="sNUk35SLCKJkpxCr8cnD-37" value="" style="endArrow=none;html=1;rounded=0;fontSize=12;startSize=8;endSize=8;curved=1;exitX=0.901;exitY=0.521;exitDx=0;exitDy=0;exitPerimeter=0;entryX=0.005;entryY=0.63;entryDx=0;entryDy=0;entryPerimeter=0;" parent="1" source="sNUk35SLCKJkpxCr8cnD-9" target="sNUk35SLCKJkpxCr8cnD-11" edge="1">
          <mxGeometry width="50" height="50" relative="1" as="geometry">
            <mxPoint x="210" y="470" as="sourcePoint" />
            <mxPoint x="260" y="420" as="targetPoint" />
          </mxGeometry>
        </mxCell>
        <mxCell id="sNUk35SLCKJkpxCr8cnD-38" value="" style="endArrow=none;html=1;rounded=0;fontSize=12;startSize=8;endSize=8;curved=1;exitX=0.955;exitY=0.513;exitDx=0;exitDy=0;exitPerimeter=0;" parent="1" source="sNUk35SLCKJkpxCr8cnD-9" edge="1">
          <mxGeometry width="50" height="50" relative="1" as="geometry">
            <mxPoint x="240" y="533" as="sourcePoint" />
            <mxPoint x="270" y="180" as="targetPoint" />
          </mxGeometry>
        </mxCell>
      </root>
    </mxGraphModel>
  </diagram>
</mxfile>
